# xmcd
#
# Track frame offsets: 
#        150
#        28222
#        64050
#        85180
#        107687
#        129332
#        152937
#        178647
#        199635
#        223572
#        254465
#        279592
#        306442
#        332630
#
# Disc length: 4700 seconds
#
# Revision: 3
# Processed by: cddbd v1.5.2PL0 Copyright (c) Steve Scherf et al.
# Submitted via: ExactAudioCopy v0.95b4
#
DISCID=cb125a0e
DTITLE=Various Artist - Wipeout XL Soundtrack
DYEAR=1996
DGENRE=Electronic
TTITLE0=The Future Sound of London - We Have Explosive
TTITLE1=Fluke - Atom Bomb
TTITLE2=The Chemical Brothers - Loops of Fury
TTITLE3=Underworld - Tin There
TTITLE4=Photek - The Third Sequence
TTITLE5=The Chemical Brothers - Leave Home (Underworld MX1)
TTITLE6=The Future Sound of London - We Have Explosive (Hero Killing)
TTITLE7=Prodigy - Firestarter (Instrumental)
TTITLE8=Fluke - U Six
TTITLE9=Daft Punk - Musique
TTITLE10=Source Direct - 2097
TTITLE11=Photek - Titan
TTITLE12=Orbital - Petrol
TTITLE13=Leftfield - Afro Ride
EXTD=
EXTT0=
EXTT1=
EXTT2=
EXTT3=
EXTT4=
EXTT5=
EXTT6=
EXTT7=
EXTT8=
EXTT9=
EXTT10=
EXTT11=
EXTT12=
EXTT13=
PLAYORDER=
